<?xml version="1.0" standalone="no"?>
<!DOCTYPE svg PUBLIC "-//W3C//DTD SVG 1.1//EN" "http://www.w3.org/Graphics/SVG/1.1/DTD/svg11.dtd" >
<svg xmlns="http://www.w3.org/2000/svg">
<metadata>
This is a custom SVG webfont generated by Font Squirrel.
Copyright   :  2007 Microsoft Corporation All Rights Reserved
Foundry     : Ascender Corporation
Foundry URL : httpwwwascendercorpcom
</metadata>
<defs>
<font id="SegoeUIMonoRegular" horiz-adv-x="1229" >
<font-face units-per-em="2048" ascent="1638" descent="-410" />
<missing-glyph horiz-adv-x="500" />
<glyph unicode=" " />
<glyph unicode="!" d="M481 113q0 55 39 94t94 39q54 0 93.5 -39t39.5 -94t-39.5 -93.5t-93.5 -38.5q-55 0 -94 38.5t-39 93.5zM496 1434h232l-59 -1030h-115z" />
<glyph unicode="&#x22;" d="M301 1434h215l-40 -487h-135zM713 1434h215l-40 -487h-135z" />
<glyph unicode="#" d="M48 520l20 106h265l61 300h-277l21 106h277l84 402h126l-84 -402h252l86 402h123l-84 -402h263l-23 -106h-261l-63 -300h281l-27 -106h-275l-88 -397h-126l86 397h-250l-84 -397h-125l84 397h-262zM455 626h254l64 300h-252z" />
<glyph unicode="$" d="M147 1059q0 145 116 250.5t294 126.5v180h104v-176q239 -6 331 -56v-170q-125 80 -331 86v-522q243 -99 332 -187.5t89 -220.5q0 -142 -111.5 -238.5t-309.5 -123.5v-217h-104v209q-250 0 -406 86v174q68 -51 186 -85.5t220 -34.5v512q-258 106 -334 195.5t-76 211.5z M315 1080q0 -86 53 -141t189 -111v466q-112 -17 -177 -74.5t-65 -139.5zM661 148q253 42 253 219q0 140 -253 239v-458z" />
<glyph unicode="%" d="M5 1114q0 159 86 250.5t232 91.5q142 0 220 -84.5t78 -238.5q0 -153 -87.5 -245.5t-228.5 -92.5q-137 0 -218.5 87t-81.5 232zM76 -10l919 1444h144l-920 -1444h-143zM138 1123q0 -103 47.5 -160t128.5 -57q82 0 128.5 59t46.5 164q0 103 -46 160t-126 57 q-83 0 -131 -59.5t-48 -163.5zM609 297q0 159 87 251.5t231 92.5q141 0 219.5 -85.5t78.5 -240.5q0 -152 -87.5 -244.5t-228.5 -92.5q-137 0 -218.5 87.5t-81.5 231.5zM742 305q0 -101 47.5 -158t128.5 -57q82 0 128.5 59.5t46.5 163.5q0 103 -46 159t-126 56 q-84 0 -131.5 -59t-47.5 -164z" />
<glyph unicode="&#x26;" d="M21 362q0 253 307 420q-135 168 -135 330q0 154 97 250t249 96q146 0 232 -90q81 -84 81 -209q0 -137 -80 -230q-58 -75 -226 -173q190 -217 357 -379q44 61 76 160q38 115 39 221h151q-2 -272 -172 -486q41 -40 270 -272h-229l-154 158q-181 -183 -439 -183 q-207 0 -323 122q-101 107 -101 265zM189 369q0 -115 69.5 -184.5t190.5 -69.5q187 0 341 141q-172 184 -389 426q-103 -65 -153 -130q-59 -76 -59 -183zM355 1111q0 -129 113 -257q224 122 224 291q0 79 -45 132q-44 50 -106 50q-87 0 -139 -61q-47 -57 -47 -155z" />
<glyph unicode="'" d="M506 1434h215l-40 -487h-135z" />
<glyph unicode="(" d="M385 547q0 521 430 887h148q-434 -380 -434 -885q0 -501 432 -875h-146q-430 354 -430 873z" />
<glyph unicode=")" d="M264 1434h148q432 -366 432 -887q0 -519 -432 -873h-146q432 374 432 875q0 505 -434 885z" />
<glyph unicode="*" d="M182 1064l35 135l352 -109l-33 344h158l-33 -344l353 109l32 -135l-354 -56l250 -293l-120 -86l-206 325l-208 -325l-120 86l250 293z" />
<glyph unicode="+" d="M144 530v134h403v403h133v-403h404v-134h-404v-403h-133v403h-403z" />
<glyph unicode="," d="M465 -264l77 492h230l-179 -492h-128z" />
<glyph unicode="-" d="M341 506v129h546v-129h-546z" />
<glyph unicode="." d="M480 111q0 55 39 95t94 40q56 0 95.5 -40t39.5 -95t-39.5 -95t-95.5 -40q-55 0 -94 40t-39 95z" />
<glyph unicode="/" d="M94 -238l876 1672h165l-878 -1672h-163z" />
<glyph unicode="0" d="M147 688q0 380 124.5 575t359.5 195q450 0 450 -735q0 -364 -127 -555.5t-355 -191.5q-213 0 -332.5 183t-119.5 529zM315 696q0 -582 301 -582q297 0 297 592q0 613 -291 613q-307 0 -307 -623z" />
<glyph unicode="1" d="M232 1159v156l496 151v-1322h323v-144h-811v144h324v1114z" />
<glyph unicode="2" d="M137 0v146l418 419q160 160 228.5 266.5t68.5 227.5q0 124 -71 192t-202 68q-192 0 -368 -164v172q168 131 391 131q192 0 302 -104t110 -279q0 -138 -76 -269.5t-273 -326.5l-331 -327v-4h727v-148h-924z" />
<glyph unicode="3" d="M129 53v177q169 -116 382 -116q173 0 276 75t103 202q0 281 -476 281h-142v139h137q431 0 431 264q0 244 -320 244q-178 0 -336 -103v160q157 82 371 82q206 0 329.5 -96t123.5 -246q0 -283 -288 -364v-4q155 -15 246.5 -108.5t91.5 -233.5q0 -193 -155 -311.5 t-410 -118.5q-228 0 -364 77z" />
<glyph unicode="4" d="M104 381v107l638 946h198v-920h184v-133h-184v-381h-162v381h-674zM282 514h496v620q0 66 4 148h-4q-14 -36 -55 -110z" />
<glyph unicode="5" d="M172 35v174q165 -95 337 -95q171 0 275.5 86t104.5 228q0 141 -108 220t-309 79q-68 0 -255 -12v719h774v-148h-619v-420q75 4 138 4q261 0 403.5 -115.5t142.5 -316.5q0 -208 -149 -335t-408 -127q-219 0 -327 59z" />
<glyph unicode="6" d="M128 631q0 377 172.5 602t456.5 225q161 0 255 -41v-155q-121 57 -256 57q-208 0 -333 -170t-125 -455h4q108 203 355 203q203 0 323 -120.5t120 -322.5q0 -211 -135.5 -344.5t-344.5 -133.5q-230 0 -361 172t-131 483zM309 469q0 -147 87 -251t231 -104q137 0 221 90.5 t84 229.5q0 152 -81 238t-227 86q-140 0 -227.5 -86t-87.5 -203z" />
<glyph unicode="7" d="M115 1286v148h984v-52l-598 -1382h-170l567 1286h-783z" />
<glyph unicode="8" d="M121 350q0 276 320 402v4q-268 120 -268 348q0 155 124.5 254.5t329.5 99.5q185 0 308.5 -93t123.5 -239q0 -238 -276 -370v-4q324 -112 324 -388q0 -178 -129.5 -283t-377.5 -105q-220 0 -349.5 104t-129.5 270zM289 358q0 -107 90.5 -175.5t239.5 -68.5 q141 0 230.5 67.5t89.5 170.5q0 216 -338 322q-312 -109 -312 -316zM341 1108q0 -187 273 -282q277 98 277 280q0 99 -72.5 156t-197.5 57q-117 0 -198.5 -59.5t-81.5 -151.5z" />
<glyph unicode="9" d="M128 979q0 210 138.5 344.5t353.5 134.5q227 0 353.5 -167.5t126.5 -487.5q0 -397 -163.5 -612t-454.5 -215q-153 0 -266 48v158q130 -68 274 -68q209 0 325.5 157t116.5 446q-2 -1 -4 0q-100 -185 -346 -185q-199 0 -326.5 125t-127.5 322zM296 1002q0 -151 86 -237.5 t232 -86.5q128 0 216.5 79t88.5 193q0 163 -88 266t-229 103q-131 0 -218.5 -89.5t-87.5 -227.5z" />
<glyph unicode=":" d="M480 111q0 55 39 95t94 40q56 0 95.5 -40t39.5 -95t-39.5 -95t-95.5 -40q-55 0 -94 40t-39 95zM480 915q0 55 39 93.5t94 38.5q56 0 95.5 -38.5t39.5 -93.5t-39.5 -94.5t-95.5 -39.5q-55 0 -94 39.5t-39 94.5z" />
<glyph unicode=";" d="M465 -264l77 492h230l-180 -492h-127zM518 915q0 55 39 93.5t95 38.5q55 0 94.5 -38.5t39.5 -93.5t-39.5 -94.5t-94.5 -39.5q-56 0 -95 39.5t-39 94.5z" />
<glyph unicode="&#x3c;" d="M184 559v59l860 482v-150l-642 -356v-4l642 -314v-149z" />
<glyph unicode="=" d="M144 318v132h940v-132h-940zM144 744v132h940v-132h-940z" />
<glyph unicode="&#x3e;" d="M184 127v149l644 312v6l-644 356v150l860 -482v-59z" />
<glyph unicode="?" d="M191 1195v167q165 96 382 96q91 0 172 -20.5t141.5 -61.5t95.5 -102t35 -142q0 -76 -30 -136t-75.5 -110t-98.5 -93.5t-100 -82.5t-78.5 -83t-31.5 -91q0 -43 11 -78.5t22 -59.5h-161q-9 25 -16 65t-7 80q0 62 27 112t71.5 93.5t97.5 83.5t100.5 84t77.5 92.5t30 106.5 q0 49 -23.5 87.5t-64 64.5t-93.5 39t-104 13q-190 0 -380 -124zM432 103q0 56 39 93q40 40 94 40t94 -40q39 -37 39 -93q0 -55 -39 -94q-41 -38 -94 -38t-94 38q-39 39 -39 94z" />
<glyph unicode="@" d="M31 606q0 366 169 607t431 241q247 0 408 -202t161 -527q0 -238 -83.5 -390.5t-203.5 -152.5q-155 0 -156 238h-2q-57 -238 -225 -238q-107 0 -172 101t-65 272q0 226 91.5 375.5t240.5 149.5q57 0 101.5 -37t57.5 -93h3q2 28 10 115h125q-47 -551 -47 -561 q0 -207 63 -207q58 0 96 117t38 303q0 275 -118.5 449t-329.5 174q-201 0 -333.5 -208t-132.5 -520q0 -307 129.5 -495.5t348.5 -188.5q174 0 297 82v-124q-126 -74 -314 -74q-265 0 -426.5 219.5t-161.5 574.5zM433 553q0 -118 37 -186t98 -68q89 0 141 123.5t52 327.5 q0 214 -130 214q-88 0 -143 -118t-55 -293z" />
<glyph unicode="A" d="M17 0l510 1434h174l512 -1434h-186l-134 402h-558l-131 -402h-187zM384 553h458l-207 615q-11 30 -22 96h-4q-10 -61 -23 -96z" />
<glyph unicode="B" d="M193 0v1434h448q186 0 295 -91t109 -237q0 -122 -66 -212t-182 -128v-4q145 -17 232 -109.5t87 -240.5q0 -184 -132 -298t-333 -114h-458zM361 152h268q148 0 229.5 70t81.5 192q0 254 -346 254h-233v-516zM361 819h212q138 0 217 66.5t79 187.5q0 209 -275 209h-233 v-463z" />
<glyph unicode="C" d="M145 690q0 344 182 556t461 212q179 0 297 -59v-179q-132 86 -291 86q-211 0 -342 -165t-131 -441q0 -262 122.5 -417.5t321.5 -155.5q185 0 320 96v-163q-140 -84 -348 -84q-269 0 -430.5 197t-161.5 517z" />
<glyph unicode="D" d="M165 0v1434h220q758 0 758 -699q0 -332 -210.5 -533.5t-563.5 -201.5h-204zM333 152h38q282 0 439 151t157 428q0 551 -586 551h-48v-1130z" />
<glyph unicode="E" d="M214 0v1434h808v-152h-640v-477h598v-151h-598v-502h672v-152h-840z" />
<glyph unicode="F" d="M230 0v1434h798v-152h-630v-496h588v-151h-588v-635h-168z" />
<glyph unicode="G" d="M121 698q0 333 178.5 546.5t451.5 213.5q198 0 333 -76v-186q-142 110 -337 110q-198 0 -324 -166t-126 -430q0 -272 112.5 -427.5t305.5 -155.5q133 0 230 57v412h-314v152h482v-650q-184 -122 -408 -122q-262 0 -423 198t-161 524z" />
<glyph unicode="H" d="M165 0v1434h168v-629h562v629h168v-1434h-168v654h-562v-654h-168z" />
<glyph unicode="I" d="M220 0v144h310v1146h-310v144h788v-144h-310v-1146h310v-144h-788z" />
<glyph unicode="J" d="M173 0v166q89 -39 231 -39q374 0 374 385v922h168v-920q0 -255 -156 -396.5t-418 -141.5q-121 0 -199 24z" />
<glyph unicode="K" d="M204 0v1434h168v-674h4q14 22 38 49l536 625h209l-615 -688l658 -746h-234l-554 656q-31 37 -38 50h-4v-706h-168z" />
<glyph unicode="L" d="M242 0v1434h168v-1282h656v-152h-824z" />
<glyph unicode="M" d="M94 0v1434h242l210 -841q42 -184 66 -331h6q26 147 69 335l219 837h230v-1434h-157v912q0 164 14 329h-4q-24 -97 -43 -189l-260 -1052h-142l-259 1044q-21 92 -43 197h-4q8 -151 8 -331v-910h-152z" />
<glyph unicode="N" d="M136 0v1434h208l528 -1038q45 -107 58 -143h4q-10 62 -10 211v970h168v-1434h-196l-548 1073q-28 73 -46 120h-6q8 -46 8 -197v-996h-168z" />
<glyph unicode="O" d="M87 700q0 346 136 552t408 206q249 0 380.5 -200t131.5 -523q0 -351 -134.5 -555t-397.5 -204q-258 0 -391 201t-133 523zM263 715q0 -265 81 -426.5t266 -161.5q197 0 277 154t80 431q0 284 -78.5 439t-270.5 155q-187 0 -271 -163t-84 -428z" />
<glyph unicode="P" d="M217 0v1434h394q230 0 356.5 -112t126.5 -316t-140.5 -334t-379.5 -130h-189v-542h-168zM385 694h176q174 0 265.5 79.5t91.5 224.5q0 284 -336 284h-197v-588z" />
<glyph unicode="Q" d="M88 700q0 347 135 552q136 206 411 206q246 0 377 -200q132 -200 132 -523q0 -137 -23.5 -258t-70.5 -219t-118.5 -166t-169.5 -97q44 -55 83 -97t77.5 -70.5t80.5 -43.5t92 -15q14 0 30 1.5t33 5t32 8t28 10.5v-162q-14 -5 -30.5 -8.5t-34 -6t-34.5 -4t-31 -1.5 q-81 0 -145.5 28.5t-121 78t-109 115.5t-109.5 142q-55 0 -111.5 12.5t-103 38t-88.5 63t-77 87.5q-134 200 -134 523zM263 715q0 -264 81 -427q81 -161 266 -161q197 0 277 154t80 431q0 285 -79 439q-78 155 -270 155q-187 0 -271 -163t-84 -428z" />
<glyph unicode="R" d="M200 0v1434h428q94 0 173.5 -23.5t138 -71.5t91.5 -119.5t33 -167.5q0 -75 -22.5 -137.5t-64 -111.5t-100 -83.5t-131.5 -53.5v-4q36 -16 62.5 -36.5t50.5 -48.5t47.5 -63.5t52.5 -82.5l269 -431h-200l-240 402q-33 56 -64 95.5t-63.5 64.5t-70 36.5t-84.5 11.5h-138 v-610h-168zM368 762h228q63 0 116.5 19t92.5 54.5t61 87t22 115.5q0 115 -74.5 179.5t-215.5 64.5h-230v-520z" />
<glyph unicode="S" d="M151 58v198q37 -30 88.5 -54t108.5 -40.5t114.5 -25.5t106.5 -9q169 0 252 57.5t83 165.5q0 58 -27.5 101t-76.5 78.5t-116 68t-144 68.5q-82 38 -152.5 77t-122.5 86t-82 106.5t-30 139.5q0 98 46 170.5t121.5 119.5t171.5 70t196 23q206 0 332 -57v-183 q-139 88 -357 88q-60 0 -120.5 -11.5t-107.5 -37.5t-76.5 -67t-29.5 -100q0 -55 22.5 -95t66 -73t105.5 -64t144 -68q84 -38 159 -80t131.5 -93t89.5 -113t33 -142q0 -106 -44.5 -179.5t-119.5 -119.5t-173.5 -66.5t-207.5 -20.5q-37 0 -90 5.5t-109 16t-105.5 26 t-79.5 34.5z" />
<glyph unicode="T" d="M87 1282v152h1055v-152h-444v-1282h-168v1282h-443z" />
<glyph unicode="U" d="M136 557v877h168v-866q0 -441 316 -441q305 0 305 426v881h168v-854q0 -604 -489 -604q-468 0 -468 581z" />
<glyph unicode="V" d="M37 1434h187l357 -1129q19 -66 29 -135h4q8 63 33 137l365 1127h181l-491 -1434h-185z" />
<glyph unicode="W" d="M-16 1434h155l155 -1040q19 -129 24 -204h5q8 78 31 204l197 1040h161l184 -1048q16 -117 24 -194h4q8 76 27 198l143 1044h152l-225 -1434h-187l-180 997q-19 127 -23 206h-4q-6 -74 -26 -204l-192 -999h-185z" />
<glyph unicode="X" d="M38 0l480 721l-442 713h206l293 -504q29 -50 51 -100h4q32 66 56 104l305 500h193l-451 -711l457 -723h-205l-330 549q-15 25 -33 71h-4q-10 -23 -34 -71l-340 -549h-206z" />
<glyph unicode="Y" d="M23 1434h191l361 -668q20 -36 35 -88h3q10 41 38 88l376 668h178l-513 -904v-530h-168v526z" />
<glyph unicode="Z" d="M69 0v47l833 1235h-766v152h1024v-40l-840 -1242h820v-152h-1071z" />
<glyph unicode="[" d="M430 -326v1760h508v-119h-362v-1522h362v-119h-508z" />
<glyph unicode="\" d="M102 1434h165l859 -1674h-161z" />
<glyph unicode="]" d="M291 -207h361v1522h-361v119h507v-1760h-507v119z" />
<glyph unicode="^" d="M142 624l422 834h65l457 -834h-150l-332 619h-6l-309 -619h-147z" />
<glyph unicode="_" d="M-10 -178h1250v-119h-1250v119z" />
<glyph unicode="`" d="M272 1546h208l221 -328h-127z" />
<glyph unicode="a" d="M136 272q0 287 380 334l345 43q0 261 -242 261q-212 0 -383 -126v168q168 96 387 96q402 0 402 -382v-666h-164v160h-4q-121 -184 -355 -184q-172 0 -269 81t-97 215zM304 284q0 -75 62.5 -122.5t166.5 -47.5q142 0 235 85.5t93 216.5v102l-288 -34 q-134 -16 -201.5 -56.5t-67.5 -143.5z" />
<glyph unicode="b" d="M163 0v1516h164v-672h4q121 204 354 204q197 0 308.5 -137.5t111.5 -368.5q0 -257 -125 -411.5t-342 -154.5q-203 0 -307 172h-4v-148h-164zM327 418q0 -127 82.5 -215.5t209.5 -88.5q149 0 233.5 114t84.5 317q0 171 -79 268t-214 97q-143 0 -230 -99.5t-87 -249.5v-143 z" />
<glyph unicode="c" d="M182 488q0 253 160 406.5t427 153.5q149 0 263 -50v-168q-129 80 -276 80q-178 0 -292 -112.5t-114 -295.5q0 -180 107 -284t287 -104q152 0 286 89v-156q-130 -71 -309 -71q-242 0 -390.5 142.5t-148.5 369.5z" />
<glyph unicode="d" d="M122 488q0 254 128 407t341 153q211 0 307 -166h4v634h164v-1516h-164v174h-4q-114 -198 -352 -198q-193 0 -308.5 137.5t-115.5 374.5zM290 496q0 -177 82.5 -279.5t221.5 -102.5q137 0 222.5 99t85.5 250v151q0 124 -82 210t-208 86q-150 0 -236 -110t-86 -304z" />
<glyph unicode="e" d="M138 508q0 239 144.5 389.5t359.5 150.5q214 0 331.5 -130t117.5 -361v-86h-783q4 -171 100.5 -264t264.5 -93q189 0 347 114v-154q-145 -98 -383 -98q-233 0 -366 139.5t-133 392.5zM310 610h613q-1 142 -76 221t-208 79q-128 0 -218 -83t-111 -217z" />
<glyph unicode="f" d="M176 884v140h285v116q0 184 111.5 291t311.5 107q108 0 171 -18v-148q-85 27 -192 27q-239 0 -239 -264v-111h390v-140h-390v-884h-163v884h-285z" />
<glyph unicode="g" d="M122 479q0 261 125.5 415t343.5 154q207 0 307 -166h4v142h164v-942q0 -564 -540 -564q-190 0 -332 72v164q173 -96 330 -96q378 0 378 402v112h-4q-117 -196 -352 -196q-191 0 -307.5 136.5t-116.5 366.5zM290 490q0 -171 82.5 -273.5t218.5 -102.5q138 0 224.5 98 t86.5 251v151q0 122 -82.5 209t-205.5 87q-152 0 -238 -110.5t-86 -309.5z" />
<glyph unicode="h" d="M169 0v1516h164v-662h4q125 194 356 194q366 0 366 -417v-631h-164v590q0 320 -256 320q-129 0 -217.5 -92.5t-88.5 -237.5v-580h-164z" />
<glyph unicode="i" d="M236 884v140h538v-1024h-164v884h-374zM548 1390q0 55 37 91.5t90 36.5q54 0 91.5 -36.5t37.5 -91.5q0 -53 -37.5 -90t-91.5 -37q-53 0 -90 36t-37 91z" />
<glyph unicode="j" d="M152 -297q107 -45 203 -45q324 0 324 358v868h-375v140h539v-981q0 -252 -133 -388.5t-380 -136.5q-92 0 -178 32v153zM606 1390q0 55 37 91.5t90 36.5q54 0 91.5 -36.5t37.5 -91.5q0 -53 -37.5 -90t-91.5 -37q-53 0 -90 36t-37 91z" />
<glyph unicode="k" d="M225 0v1516h164v-961h4l510 469h215l-545 -494l582 -530h-230l-532 492h-4v-492h-164z" />
<glyph unicode="l" d="M234 1376v140h538v-1516h-164v1376h-374z" />
<glyph unicode="m" d="M68 0v1024h164v-162h4q78 186 229 186q76 0 132 -58.5t77 -153.5q81 212 244 212q244 0 244 -417v-631h-164v588q0 170 -33 246t-110 76q-66 0 -112 -96t-46 -230v-584h-164v608q0 302 -145 302q-69 0 -112.5 -90.5t-43.5 -235.5v-584h-164z" />
<glyph unicode="n" d="M169 0v1024h164v-170h4q123 194 356 194q178 0 272 -108.5t94 -313.5v-626h-164v584q0 326 -256 326q-133 0 -219.5 -92.5t-86.5 -233.5v-584h-164z" />
<glyph unicode="o" d="M110 500q0 258 141 403t381 145q229 0 357.5 -141t128.5 -391q0 -245 -138.5 -392.5t-371.5 -147.5q-227 0 -362.5 143.5t-135.5 380.5zM278 506q0 -182 93 -287t249 -105q159 0 244.5 103t85.5 293q0 192 -85.5 296t-244.5 104q-158 0 -250 -107.5t-92 -296.5z" />
<glyph unicode="p" d="M163 -471v1495h164v-180h4q121 204 354 204q198 0 309 -137.5t111 -368.5q0 -257 -125 -411.5t-342 -154.5q-199 0 -307 172h-4v-619h-164zM327 418q0 -127 82.5 -215.5t209.5 -88.5q149 0 233.5 114t84.5 317q0 171 -79 268t-214 97q-143 0 -230 -99.5t-87 -249.5v-143z " />
<glyph unicode="q" d="M122 488q0 255 128 407.5t344 152.5q210 0 304 -166h4v142h164v-1495h-164v647h-4q-107 -200 -350 -200q-193 0 -309.5 137.5t-116.5 374.5zM290 492q0 -177 83 -277.5t214 -100.5q144 0 229.5 98.5t85.5 248.5v149q0 126 -82.5 213t-209.5 87q-148 0 -234 -109.5 t-86 -308.5z" />
<glyph unicode="r" d="M277 0v1024h164v-211h4q57 108 175 168.5t264 60.5q105 0 161 -14v-170q-70 33 -202 33q-172 0 -287 -99t-115 -270v-522h-164z" />
<glyph unicode="s" d="M225 37v176q160 -99 353 -99q258 0 258 144q0 41 -22 69.5t-60 50.5t-88.5 39.5t-109.5 36.5q-81 27 -143 54.5t-103 62t-62 78.5t-21 103q0 72 34.5 127.5t93 93t132.5 56.5t153 19q179 0 321 -48v-166q-137 74 -316 74q-56 0 -101 -10.5t-77.5 -29.5t-50 -45t-17.5 -58 q0 -40 17.5 -67t51 -48t81 -38t108.5 -37q82 -26 146.5 -53.5t110 -61.5t68 -79t22.5 -107q0 -76 -34.5 -132t-91.5 -93t-132.5 -55t-158.5 -18q-209 0 -362 61z" />
<glyph unicode="t" d="M190 884v140h203v250l164 53v-303h449v-140h-449v-538q0 -124 61.5 -177t203.5 -53q108 0 187 34v-140q-85 -32 -223 -32q-393 0 -393 388v518h-203z" />
<glyph unicode="u" d="M169 412v612h164v-586q0 -324 266 -324q129 0 212.5 88.5t83.5 231.5v590h164v-1024h-164v162h-4q-108 -186 -335 -186q-387 0 -387 436z" />
<glyph unicode="v" d="M96 1024h180l300 -754q29 -72 36 -133h4q10 70 32 129l312 758h173l-448 -1024h-161z" />
<glyph unicode="w" d="M-1 1024h162l162 -740q10 -65 14 -122h8q3 44 18 124l196 738h150l172 -752q10 -57 15 -112h8q2 39 17 112l158 752h152l-247 -1024h-170l-171 733q-13 61 -16 95h-4q-7 -35 -21 -93l-189 -735h-164z" />
<glyph unicode="x" d="M140 0l379 502l-364 522h191l228 -350q22 -39 43 -80h4l286 430h181l-374 -518l368 -506h-191l-231 332q-21 33 -45 78h-4q-7 -15 -47 -78l-235 -332h-189z" />
<glyph unicode="y" d="M101 1024h182l307 -788q11 -31 21 -78h6q9 42 24 81l317 785h170l-483 -1147q-41 -97 -88 -165t-99 -111t-109 -63t-117 -20q-74 0 -120 13v147q63 -18 116 -18q33 0 64 9.5t61 32.5t59.5 62t57.5 98l65 134z" />
<glyph unicode="z" d="M166 0v51l646 833h-589v140h830v-47l-646 -837h640v-140h-881z" />
<glyph unicode="{" d="M283 496v116q256 10 256 216v292q0 310 407 314v-128q-259 -4 -259 -198v-293q0 -210 -150 -258v-4q150 -45 150 -256v-289q0 -111 58 -158.5t201 -49.5v-126q-407 4 -407 310v300q0 202 -256 212z" />
<glyph unicode="|" d="M540 -482v2048h148v-2048h-148z" />
<glyph unicode="}" d="M283 -200q141 2 200.5 50t59.5 158v289q0 211 149 256v4q-149 48 -149 258v293q0 194 -260 198v128q406 -4 406 -314v-292q0 -206 256 -216v-116q-256 -10 -256 -212v-300q0 -306 -406 -310v126z" />
<glyph unicode="~" d="M122 440q5 143 79.5 226.5t201.5 83.5q106 0 235 -88q132 -90 197 -90q61 0 98 49t39 129h135q-7 -148 -80.5 -229t-199.5 -81q-109 0 -265 109q-97 67 -159 67q-140 0 -146 -176h-135z" />
<glyph unicode="&#xa0;" />
<glyph unicode="&#xaa;" d="M136 272q0 287 380 334l345 43q0 261 -242 261q-212 0 -383 -126v168q168 96 387 96q402 0 402 -382v-666h-164v160h-4q-121 -184 -355 -184q-172 0 -269 81t-97 215zM304 284q0 -75 62.5 -122.5t166.5 -47.5q142 0 235 85.5t93 216.5v102l-288 -34 q-134 -16 -201.5 -56.5t-67.5 -143.5z" />
<glyph unicode="&#xad;" d="M341 506v129h546v-129h-546z" />
<glyph unicode="&#xb2;" d="M137 0v146l418 419q160 160 228.5 266.5t68.5 227.5q0 124 -71 192t-202 68q-192 0 -368 -164v172q168 131 391 131q192 0 302 -104t110 -279q0 -138 -76 -269.5t-273 -326.5l-331 -327v-4h727v-148h-924z" />
<glyph unicode="&#xb3;" d="M129 53v177q169 -116 382 -116q173 0 276 75t103 202q0 281 -476 281h-142v139h137q431 0 431 264q0 244 -320 244q-178 0 -336 -103v160q157 82 371 82q206 0 329.5 -96t123.5 -246q0 -283 -288 -364v-4q155 -15 246.5 -108.5t91.5 -233.5q0 -193 -155 -311.5 t-410 -118.5q-228 0 -364 77z" />
<glyph unicode="&#xb9;" d="M232 1159v156l496 151v-1322h323v-144h-811v144h324v1114z" />
<glyph unicode="&#xba;" d="M110 500q0 258 141 403t381 145q229 0 357.5 -141t128.5 -391q0 -245 -138.5 -392.5t-371.5 -147.5q-227 0 -362.5 143.5t-135.5 380.5zM278 506q0 -182 93 -287t249 -105q159 0 244.5 103t85.5 293q0 192 -85.5 296t-244.5 104q-158 0 -250 -107.5t-92 -296.5z" />
<glyph unicode="&#xc0;" d="M248 1908h208l221 -328h-127zM17 0l510 1434h174l512 -1434h-186l-134 402h-558l-131 -402h-187zM384 553h458l-207 615q-11 30 -22 96h-4q-10 -61 -23 -96z" />
<glyph unicode="&#xc2;" d="M142 1580l422 834h65l457 -834h-150l-332 619h-6l-309 -619h-147zM17 0l510 1434h174l512 -1434h-186l-134 402h-558l-131 -402h-187zM384 553h458l-207 615q-11 30 -22 96h-4q-10 -61 -23 -96z" />
<glyph unicode="&#xc3;" d="M122 1580q5 143 79.5 226.5t201.5 83.5q106 0 235 -88q132 -90 197 -90q61 0 98 49t39 129h135q-7 -148 -80.5 -229t-199.5 -81q-109 0 -265 109q-97 67 -159 67q-140 0 -146 -176h-135zM17 0l510 1434h174l512 -1434h-186l-134 402h-558l-131 -402h-187zM384 553h458 l-207 615q-11 30 -22 96h-4q-10 -61 -23 -96z" />
<glyph unicode="&#xc8;" d="M252 1908h208l221 -328h-127zM214 0v1434h808v-152h-640v-477h598v-151h-598v-502h672v-152h-840z" />
<glyph unicode="&#xca;" d="M146 1580l422 834h65l457 -834h-150l-332 619h-6l-309 -619h-147zM214 0v1434h808v-152h-640v-477h598v-151h-598v-502h672v-152h-840z" />
<glyph unicode="&#xcc;" d="M248 1908h208l221 -328h-127zM220 0v144h310v1146h-310v144h788v-144h-310v-1146h310v-144h-788z" />
<glyph unicode="&#xce;" d="M142 1580l422 834h65l457 -834h-150l-332 619h-6l-309 -619h-147zM220 0v144h310v1146h-310v144h788v-144h-310v-1146h310v-144h-788z" />
<glyph unicode="&#xd1;" d="M122 1580q5 143 79.5 226.5t201.5 83.5q106 0 235 -88q132 -90 197 -90q61 0 98 49t39 129h135q-7 -148 -80.5 -229t-199.5 -81q-109 0 -265 109q-97 67 -159 67q-140 0 -146 -176h-135zM136 0v1434h208l528 -1038q45 -107 58 -143h4q-10 62 -10 211v970h168v-1434h-196 l-548 1073q-28 73 -46 120h-6q8 -46 8 -197v-996h-168z" />
<glyph unicode="&#xd2;" d="M266 1908h208l221 -328h-127zM87 700q0 346 136 552t408 206q249 0 380.5 -200t131.5 -523q0 -351 -134.5 -555t-397.5 -204q-258 0 -391 201t-133 523zM263 715q0 -265 81 -426.5t266 -161.5q197 0 277 154t80 431q0 284 -78.5 439t-270.5 155q-187 0 -271 -163 t-84 -428z" />
<glyph unicode="&#xd4;" d="M159 1580l422 834h65l457 -834h-150l-332 619h-6l-309 -619h-147zM87 700q0 346 136 552t408 206q249 0 380.5 -200t131.5 -523q0 -351 -134.5 -555t-397.5 -204q-258 0 -391 201t-133 523zM263 715q0 -265 81 -426.5t266 -161.5q197 0 277 154t80 431q0 284 -78.5 439 t-270.5 155q-187 0 -271 -163t-84 -428z" />
<glyph unicode="&#xd5;" d="M138 1580q5 143 79.5 226.5t201.5 83.5q106 0 235 -88q132 -90 197 -90q61 0 98 49t39 129h135q-7 -148 -80.5 -229t-199.5 -81q-109 0 -265 109q-97 67 -159 67q-140 0 -146 -176h-135zM87 700q0 346 136 552t408 206q249 0 380.5 -200t131.5 -523q0 -351 -134.5 -555 t-397.5 -204q-258 0 -391 201t-133 523zM263 715q0 -265 81 -426.5t266 -161.5q197 0 277 154t80 431q0 284 -78.5 439t-270.5 155q-187 0 -271 -163t-84 -428z" />
<glyph unicode="&#xd9;" d="M249 1908h208l221 -328h-127zM136 557v877h168v-866q0 -441 316 -441q305 0 305 426v881h168v-854q0 -604 -489 -604q-468 0 -468 581z" />
<glyph unicode="&#xdb;" d="M142 1580l422 834h65l457 -834h-150l-332 619h-6l-309 -619h-147zM136 557v877h168v-866q0 -441 316 -441q305 0 305 426v881h168v-854q0 -604 -489 -604q-468 0 -468 581z" />
<glyph unicode="&#xe0;" d="M258 1498h208l221 -328h-127zM136 272q0 287 380 334l345 43q0 261 -242 261q-212 0 -383 -126v168q168 96 387 96q402 0 402 -382v-666h-164v160h-4q-121 -184 -355 -184q-172 0 -269 81t-97 215zM304 284q0 -75 62.5 -122.5t166.5 -47.5q142 0 235 85.5t93 216.5v102 l-288 -34q-134 -16 -201.5 -56.5t-67.5 -143.5z" />
<glyph unicode="&#xe2;" d="M151 1170l422 834h65l457 -834h-150l-332 619h-6l-309 -619h-147zM136 272q0 287 380 334l345 43q0 261 -242 261q-212 0 -383 -126v168q168 96 387 96q402 0 402 -382v-666h-164v160h-4q-121 -184 -355 -184q-172 0 -269 81t-97 215zM304 284q0 -75 62.5 -122.5 t166.5 -47.5q142 0 235 85.5t93 216.5v102l-288 -34q-134 -16 -201.5 -56.5t-67.5 -143.5z" />
<glyph unicode="&#xe3;" d="M130 1170q5 143 79.5 226.5t201.5 83.5q106 0 235 -88q132 -90 197 -90q61 0 98 49t39 129h135q-7 -148 -80.5 -229t-199.5 -81q-109 0 -265 109q-97 67 -159 67q-140 0 -146 -176h-135zM136 272q0 287 380 334l345 43q0 261 -242 261q-212 0 -383 -126v168 q168 96 387 96q402 0 402 -382v-666h-164v160h-4q-121 -184 -355 -184q-172 0 -269 81t-97 215zM304 284q0 -75 62.5 -122.5t166.5 -47.5q142 0 235 85.5t93 216.5v102l-288 -34q-134 -16 -201.5 -56.5t-67.5 -143.5z" />
<glyph unicode="&#xe8;" d="M276 1498h208l221 -328h-127zM138 508q0 239 144.5 389.5t359.5 150.5q214 0 331.5 -130t117.5 -361v-86h-783q4 -171 100.5 -264t264.5 -93q189 0 347 114v-154q-145 -98 -383 -98q-233 0 -366 139.5t-133 392.5zM310 610h613q-1 142 -76 221t-208 79q-128 0 -218 -83 t-111 -217z" />
<glyph unicode="&#xea;" d="M170 1170l422 834h65l457 -834h-150l-332 619h-6l-309 -619h-147zM138 508q0 239 144.5 389.5t359.5 150.5q214 0 331.5 -130t117.5 -361v-86h-783q4 -171 100.5 -264t264.5 -93q189 0 347 114v-154q-145 -98 -383 -98q-233 0 -366 139.5t-133 392.5zM310 610h613 q-1 142 -76 221t-208 79q-128 0 -218 -83t-111 -217z" />
<glyph unicode="&#xec;" d="M310 1968h208l221 -328h-127zM236 884v140h538v-1024h-164v884h-374zM548 1390q0 55 37 91.5t90 36.5q54 0 91.5 -36.5t37.5 -91.5q0 -53 -37.5 -90t-91.5 -37q-53 0 -90 36t-37 91z" />
<glyph unicode="&#xee;" d="M203 1640l422 834h65l457 -834h-150l-332 619h-6l-309 -619h-147zM236 884v140h538v-1024h-164v884h-374zM548 1390q0 55 37 91.5t90 36.5q54 0 91.5 -36.5t37.5 -91.5q0 -53 -37.5 -90t-91.5 -37q-53 0 -90 36t-37 91z" />
<glyph unicode="&#xf1;" d="M122 1170q5 143 79.5 226.5t201.5 83.5q106 0 235 -88q132 -90 197 -90q61 0 98 49t39 129h135q-7 -148 -80.5 -229t-199.5 -81q-109 0 -265 109q-97 67 -159 67q-140 0 -146 -176h-135zM169 0v1024h164v-170h4q123 194 356 194q178 0 272 -108.5t94 -313.5v-626h-164 v584q0 326 -256 326q-133 0 -219.5 -92.5t-86.5 -233.5v-584h-164z" />
<glyph unicode="&#xf2;" d="M266 1498h208l221 -328h-127zM110 500q0 258 141 403t381 145q229 0 357.5 -141t128.5 -391q0 -245 -138.5 -392.5t-371.5 -147.5q-227 0 -362.5 143.5t-135.5 380.5zM278 506q0 -182 93 -287t249 -105q159 0 244.5 103t85.5 293q0 192 -85.5 296t-244.5 104 q-158 0 -250 -107.5t-92 -296.5z" />
<glyph unicode="&#xf4;" d="M160 1170l422 834h65l457 -834h-150l-332 619h-6l-309 -619h-147zM110 500q0 258 141 403t381 145q229 0 357.5 -141t128.5 -391q0 -245 -138.5 -392.5t-371.5 -147.5q-227 0 -362.5 143.5t-135.5 380.5zM278 506q0 -182 93 -287t249 -105q159 0 244.5 103t85.5 293 q0 192 -85.5 296t-244.5 104q-158 0 -250 -107.5t-92 -296.5z" />
<glyph unicode="&#xf5;" d="M140 1170q5 143 79.5 226.5t201.5 83.5q106 0 235 -88q132 -90 197 -90q61 0 98 49t39 129h135q-7 -148 -80.5 -229t-199.5 -81q-109 0 -265 109q-97 67 -159 67q-140 0 -146 -176h-135zM110 500q0 258 141 403t381 145q229 0 357.5 -141t128.5 -391 q0 -245 -138.5 -392.5t-371.5 -147.5q-227 0 -362.5 143.5t-135.5 380.5zM278 506q0 -182 93 -287t249 -105q159 0 244.5 103t85.5 293q0 192 -85.5 296t-244.5 104q-158 0 -250 -107.5t-92 -296.5z" />
<glyph unicode="&#xf9;" d="M248 1498h208l221 -328h-127zM169 412v612h164v-586q0 -324 266 -324q129 0 212.5 88.5t83.5 231.5v590h164v-1024h-164v162h-4q-108 -186 -335 -186q-387 0 -387 436z" />
<glyph unicode="&#xfb;" d="M142 1170l422 834h65l457 -834h-150l-332 619h-6l-309 -619h-147zM169 412v612h164v-586q0 -324 266 -324q129 0 212.5 88.5t83.5 231.5v590h164v-1024h-164v162h-4q-108 -186 -335 -186q-387 0 -387 436z" />
<glyph unicode="&#x152;" horiz-adv-x="2458" d="M1443 0v1434h808v-152h-640v-477h598v-151h-598v-502h672v-152h-840zM87 700q0 346 136 552t408 206q249 0 380.5 -200t131.5 -523q0 -351 -134.5 -555t-397.5 -204q-258 0 -391 201t-133 523zM263 715q0 -265 81 -426.5t266 -161.5q197 0 277 154t80 431 q0 284 -78.5 439t-270.5 155q-187 0 -271 -163t-84 -428z" />
<glyph unicode="&#x153;" horiz-adv-x="2458" d="M1367 508q0 239 144.5 389.5t359.5 150.5q214 0 331.5 -130t117.5 -361v-86h-783q4 -171 100.5 -264t264.5 -93q189 0 347 114v-154q-145 -98 -383 -98q-233 0 -366 139.5t-133 392.5zM1539 610h613q-1 142 -76 221t-208 79q-128 0 -218 -83t-111 -217zM110 500 q0 258 141 403t381 145q229 0 357.5 -141t128.5 -391q0 -245 -138.5 -392.5t-371.5 -147.5q-227 0 -362.5 143.5t-135.5 380.5zM278 506q0 -182 93 -287t249 -105q159 0 244.5 103t85.5 293q0 192 -85.5 296t-244.5 104q-158 0 -250 -107.5t-92 -296.5z" />
<glyph unicode="&#x2c6;" d="M142 624l422 834h65l457 -834h-150l-332 619h-6l-309 -619h-147z" />
<glyph unicode="&#x2dc;" d="M-492 122q5 143 79.5 226.5t201.5 83.5q106 0 235 -88q132 -90 197 -90q61 0 98 49t39 129h135q-7 -148 -80.5 -229t-199.5 -81q-109 0 -265 109q-97 67 -159 67q-140 0 -146 -176h-135z" />
<glyph unicode="&#x2000;" horiz-adv-x="1237" />
<glyph unicode="&#x2001;" horiz-adv-x="2474" />
<glyph unicode="&#x2002;" horiz-adv-x="1237" />
<glyph unicode="&#x2003;" horiz-adv-x="2474" />
<glyph unicode="&#x2004;" horiz-adv-x="824" />
<glyph unicode="&#x2005;" horiz-adv-x="618" />
<glyph unicode="&#x2006;" horiz-adv-x="412" />
<glyph unicode="&#x2007;" horiz-adv-x="412" />
<glyph unicode="&#x2008;" horiz-adv-x="309" />
<glyph unicode="&#x2009;" horiz-adv-x="494" />
<glyph unicode="&#x200a;" horiz-adv-x="137" />
<glyph unicode="&#x2010;" d="M341 506v129h546v-129h-546z" />
<glyph unicode="&#x2011;" d="M341 506v129h546v-129h-546z" />
<glyph unicode="&#x2012;" d="M341 506v129h546v-129h-546z" />
<glyph unicode="&#x2013;" horiz-adv-x="1024" d="M341 506v129h341v-129h-341z" />
<glyph unicode="&#x2014;" horiz-adv-x="2048" d="M341 506v129h1365v-129h-1365z" />
<glyph unicode="&#x2018;" d="M272 1546h208l221 -328h-127z" />
<glyph unicode="&#x2019;" d="M506 1434h215l-40 -487h-135z" />
<glyph unicode="&#x201c;" d="M301 1434h215l-40 -487h-135zM713 1434h215l-40 -487h-135z" />
<glyph unicode="&#x201d;" d="M301 1434h215l-40 -487h-135zM713 1434h215l-40 -487h-135z" />
<glyph unicode="&#x2026;" horiz-adv-x="3687" d="M2938 111q0 55 39 95t94 40q56 0 95.5 -40t39.5 -95t-39.5 -95t-95.5 -40q-55 0 -94 40t-39 95zM1709 111q0 55 39 95t94 40q56 0 95.5 -40t39.5 -95t-39.5 -95t-95.5 -40q-55 0 -94 40t-39 95zM480 111q0 55 39 95t94 40q56 0 95.5 -40t39.5 -95t-39.5 -95t-95.5 -40 q-55 0 -94 40t-39 95z" />
<glyph unicode="&#x202f;" horiz-adv-x="494" />
<glyph unicode="&#x2039;" d="M184 559v59l860 482v-150l-642 -356v-4l642 -314v-149z" />
<glyph unicode="&#x203a;" d="M184 127v149l644 312v6l-644 356v150l860 -482v-59z" />
<glyph unicode="&#x205f;" horiz-adv-x="618" />
<glyph unicode="&#x2122;" horiz-adv-x="2458" d="M1323 0v1434h242l210 -841q42 -184 66 -331h6q26 147 69 335l219 837h230v-1434h-157v912q0 164 14 329h-4q-24 -97 -43 -189l-260 -1052h-142l-259 1044q-21 92 -43 197h-4q8 -151 8 -331v-910h-152zM87 1282v152h1055v-152h-444v-1282h-168v1282h-443z" />
<glyph unicode="&#xe000;" horiz-adv-x="1025" d="M0 1025h1025v-1025h-1025v1025z" />
<glyph unicode="&#xfb01;" horiz-adv-x="2458" d="M1465 884v140h538v-1024h-164v884h-374zM1777 1390q0 55 37 91.5t90 36.5q54 0 91.5 -36.5t37.5 -91.5q0 -53 -37.5 -90t-91.5 -37q-53 0 -90 36t-37 91zM176 884v140h285v116q0 184 111.5 291t311.5 107q108 0 171 -18v-148q-85 27 -192 27q-239 0 -239 -264v-111h390 v-140h-390v-884h-163v884h-285z" />
<glyph unicode="&#xfb02;" horiz-adv-x="2458" d="M1463 1376v140h538v-1516h-164v1376h-374zM176 884v140h285v116q0 184 111.5 291t311.5 107q108 0 171 -18v-148q-85 27 -192 27q-239 0 -239 -264v-111h390v-140h-390v-884h-163v884h-285z" />
<glyph unicode="&#xfb03;" horiz-adv-x="3687" d="M2694 884v140h538v-1024h-164v884h-374zM3006 1390q0 55 37 91.5t90 36.5q54 0 91.5 -36.5t37.5 -91.5q0 -53 -37.5 -90t-91.5 -37q-53 0 -90 36t-37 91zM1405 884v140h285v116q0 184 111.5 291t311.5 107q108 0 171 -18v-148q-85 27 -192 27q-239 0 -239 -264v-111h390 v-140h-390v-884h-163v884h-285zM176 884v140h285v116q0 184 111.5 291t311.5 107q108 0 171 -18v-148q-85 27 -192 27q-239 0 -239 -264v-111h390v-140h-390v-884h-163v884h-285z" />
<glyph unicode="&#xfb04;" horiz-adv-x="3687" d="M2692 1376v140h538v-1516h-164v1376h-374zM1405 884v140h285v116q0 184 111.5 291t311.5 107q108 0 171 -18v-148q-85 27 -192 27q-239 0 -239 -264v-111h390v-140h-390v-884h-163v884h-285zM176 884v140h285v116q0 184 111.5 291t311.5 107q108 0 171 -18v-148 q-85 27 -192 27q-239 0 -239 -264v-111h390v-140h-390v-884h-163v884h-285z" />
</font>
</defs>
</svg>
